o Chip_holder
v 36 59 4.400000095367432
v 36 59 0.8999999761581421
v 39 59 0.8999999761581421
v 39 59 4.400000095367432
v 39 78 0.8999999761581421
v 39 78 4.400000095367432
v 36 78 0.8999999761581421
v 36 78 4.400000095367432
vn 0 -1 0
vn 0 -1 0
vn 0 -1 0
vn 0 -1 0
vn 1 0 0
vn 1 0 0
vn 1 0 0
vn 1 0 0
vn 0 1 0
vn 0 1 0
vn 0 1 0
vn 0 1 0
vn -1 0 0
vn -1 0 0
vn -1 0 0
vn -1 0 0
vn 0 0 1
vn 0 0 1
vn 0 0 1
vn 0 0 1
vn 0 0 -1
vn 0 0 -1
vn 0 0 -1
vn 0 0 -1
f 1//1 2//2 3//3
f 3//3 4//4 1//1
f 4//5 3//6 5//7
f 5//7 6//8 4//5
f 6//9 5//10 7//11
f 7//11 8//12 6//9
f 8//13 7//14 2//15
f 2//15 1//16 8//13
f 8//17 1//18 4//19
f 4//19 6//20 8//17
f 5//21 3//22 2//23
f 2//23 7//24 5//21
